<mxfile host="app.diagrams.net" modified="2021-02-22T16:04:14.614Z" agent="5.0 (Windows NT 10.0; Win64; x64) AppleWebKit/537.36 (KHTML, like Gecko) Chrome/84.0.4147.105 Safari/537.36" etag="mwB7Dpw3gw1FMjUmBFAu" version="14.2.9" type="github">
  <diagram id="kM90qZO-5GYN7zBHFGVP" name="第 1 页">
    <mxGraphModel dx="2249" dy="762" grid="1" gridSize="10" guides="1" tooltips="1" connect="1" arrows="1" fold="1" page="1" pageScale="1" pageWidth="827" pageHeight="1169" math="0" shadow="0">
      <root>
        <mxCell id="0" />
        <mxCell id="1" parent="0" />
        <mxCell id="RlqcwJac3fZC3uI610fX-40" value="" style="verticalLabelPosition=bottom;verticalAlign=top;html=1;shape=mxgraph.basic.rect;fillColor2=none;strokeWidth=1;size=20;indent=5;fillColor=#e1d5e7;strokeColor=#9673a6;fontSize=12;" vertex="1" parent="1">
          <mxGeometry x="40" y="470" width="710" height="220" as="geometry" />
        </mxCell>
        <mxCell id="RlqcwJac3fZC3uI610fX-39" value="" style="verticalLabelPosition=bottom;verticalAlign=top;html=1;shape=mxgraph.basic.rect;fillColor2=none;strokeWidth=1;size=20;indent=5;fillColor=#f5f5f5;strokeColor=#666666;fontColor=#333333;fontSize=12;" vertex="1" parent="1">
          <mxGeometry x="-160" y="100" width="230" height="100" as="geometry" />
        </mxCell>
        <mxCell id="RlqcwJac3fZC3uI610fX-14" value="" style="verticalLabelPosition=bottom;verticalAlign=top;html=1;shape=mxgraph.basic.rect;fillColor2=none;strokeWidth=1;size=20;indent=5;fillColor=#d5e8d4;strokeColor=#82b366;fontSize=12;" vertex="1" parent="1">
          <mxGeometry x="90" y="100" width="350" height="190" as="geometry" />
        </mxCell>
        <mxCell id="RlqcwJac3fZC3uI610fX-2" value="打榜" style="rounded=1;whiteSpace=wrap;html=1;fontSize=16;" vertex="1" parent="1">
          <mxGeometry x="120" y="120" width="80" height="40" as="geometry" />
        </mxCell>
        <mxCell id="RlqcwJac3fZC3uI610fX-3" value="计数写" style="rounded=1;whiteSpace=wrap;html=1;fontSize=16;" vertex="1" parent="1">
          <mxGeometry x="230" y="120" width="80" height="40" as="geometry" />
        </mxCell>
        <mxCell id="RlqcwJac3fZC3uI610fX-4" value="榜单写" style="rounded=1;whiteSpace=wrap;html=1;fontSize=16;" vertex="1" parent="1">
          <mxGeometry x="334" y="120" width="80" height="40" as="geometry" />
        </mxCell>
        <mxCell id="RlqcwJac3fZC3uI610fX-5" value="上报Agent" style="rounded=1;whiteSpace=wrap;html=1;fontSize=16;" vertex="1" parent="1">
          <mxGeometry x="150" y="241" width="80" height="40" as="geometry" />
        </mxCell>
        <mxCell id="RlqcwJac3fZC3uI610fX-6" value="注册业务中心" style="rounded=1;whiteSpace=wrap;html=1;fillColor=#1ba1e2;strokeColor=#006EAF;fontColor=#ffffff;fontSize=16;" vertex="1" parent="1">
          <mxGeometry x="295" y="320" width="100" height="70" as="geometry" />
        </mxCell>
        <mxCell id="RlqcwJac3fZC3uI610fX-7" value="" style="endArrow=classic;html=1;entryX=0.75;entryY=0;entryDx=0;entryDy=0;fontSize=12;noLabel=1;fontColor=none;strokeColor=#9933FF;" edge="1" parent="1" target="RlqcwJac3fZC3uI610fX-6">
          <mxGeometry width="50" height="50" relative="1" as="geometry">
            <mxPoint x="370" y="162" as="sourcePoint" />
            <mxPoint x="220" y="420" as="targetPoint" />
          </mxGeometry>
        </mxCell>
        <mxCell id="RlqcwJac3fZC3uI610fX-8" value="" style="endArrow=classic;html=1;exitX=0.5;exitY=1;exitDx=0;exitDy=0;fontSize=12;noLabel=1;fontColor=none;strokeColor=#9933FF;" edge="1" parent="1" source="RlqcwJac3fZC3uI610fX-3">
          <mxGeometry width="50" height="50" relative="1" as="geometry">
            <mxPoint x="384" y="170" as="sourcePoint" />
            <mxPoint x="350" y="320" as="targetPoint" />
          </mxGeometry>
        </mxCell>
        <mxCell id="RlqcwJac3fZC3uI610fX-9" value="" style="endArrow=classic;html=1;exitX=0.5;exitY=1;exitDx=0;exitDy=0;fontSize=12;strokeColor=#9933FF;" edge="1" parent="1" source="RlqcwJac3fZC3uI610fX-2">
          <mxGeometry width="50" height="50" relative="1" as="geometry">
            <mxPoint x="394" y="180" as="sourcePoint" />
            <mxPoint x="340" y="320" as="targetPoint" />
          </mxGeometry>
        </mxCell>
        <mxCell id="RlqcwJac3fZC3uI610fX-10" value="" style="endArrow=classic;html=1;entryX=0.25;entryY=0;entryDx=0;entryDy=0;exitX=0.35;exitY=1;exitDx=0;exitDy=0;exitPerimeter=0;fontSize=12;" edge="1" parent="1" source="RlqcwJac3fZC3uI610fX-2" target="RlqcwJac3fZC3uI610fX-5">
          <mxGeometry width="50" height="50" relative="1" as="geometry">
            <mxPoint x="100" y="410" as="sourcePoint" />
            <mxPoint x="150" y="360" as="targetPoint" />
          </mxGeometry>
        </mxCell>
        <mxCell id="RlqcwJac3fZC3uI610fX-11" value="" style="endArrow=classic;html=1;exitX=0.388;exitY=1.05;exitDx=0;exitDy=0;exitPerimeter=0;entryX=0.5;entryY=0;entryDx=0;entryDy=0;fontSize=12;" edge="1" parent="1" source="RlqcwJac3fZC3uI610fX-3" target="RlqcwJac3fZC3uI610fX-5">
          <mxGeometry width="50" height="50" relative="1" as="geometry">
            <mxPoint x="158" y="170" as="sourcePoint" />
            <mxPoint x="190" y="260" as="targetPoint" />
          </mxGeometry>
        </mxCell>
        <mxCell id="RlqcwJac3fZC3uI610fX-12" style="edgeStyle=none;rounded=0;orthogonalLoop=1;jettySize=auto;html=1;entryX=0.5;entryY=0;entryDx=0;entryDy=0;fontSize=12;" edge="1" parent="1" source="RlqcwJac3fZC3uI610fX-5" target="RlqcwJac3fZC3uI610fX-5">
          <mxGeometry relative="1" as="geometry" />
        </mxCell>
        <mxCell id="RlqcwJac3fZC3uI610fX-13" value="" style="endArrow=classic;html=1;entryX=0.75;entryY=0;entryDx=0;entryDy=0;exitX=0.25;exitY=1;exitDx=0;exitDy=0;fontSize=12;" edge="1" parent="1" source="RlqcwJac3fZC3uI610fX-4" target="RlqcwJac3fZC3uI610fX-5">
          <mxGeometry width="50" height="50" relative="1" as="geometry">
            <mxPoint x="168" y="180" as="sourcePoint" />
            <mxPoint x="190" y="280" as="targetPoint" />
          </mxGeometry>
        </mxCell>
        <mxCell id="RlqcwJac3fZC3uI610fX-16" value="数据中心" style="rounded=1;whiteSpace=wrap;html=1;fillColor=#1ba1e2;strokeColor=#006EAF;fontColor=#ffffff;fontSize=16;" vertex="1" parent="1">
          <mxGeometry x="130" y="360" width="120" height="60" as="geometry" />
        </mxCell>
        <mxCell id="RlqcwJac3fZC3uI610fX-18" value="" style="endArrow=classic;html=1;exitX=0.5;exitY=1;exitDx=0;exitDy=0;fontSize=12;" edge="1" parent="1" source="RlqcwJac3fZC3uI610fX-5" target="RlqcwJac3fZC3uI610fX-16">
          <mxGeometry width="50" height="50" relative="1" as="geometry">
            <mxPoint x="364" y="170" as="sourcePoint" />
            <mxPoint x="220" y="251" as="targetPoint" />
          </mxGeometry>
        </mxCell>
        <mxCell id="RlqcwJac3fZC3uI610fX-19" value="数据解析" style="rounded=1;whiteSpace=wrap;html=1;fontSize=16;" vertex="1" parent="1">
          <mxGeometry x="130" y="500" width="120" height="60" as="geometry" />
        </mxCell>
        <mxCell id="RlqcwJac3fZC3uI610fX-20" value="Kafka队列" style="rounded=1;whiteSpace=wrap;html=1;fontSize=16;" vertex="1" parent="1">
          <mxGeometry x="260" y="630" width="200" height="40" as="geometry" />
        </mxCell>
        <mxCell id="RlqcwJac3fZC3uI610fX-21" value="数据统计" style="rounded=1;whiteSpace=wrap;html=1;fontSize=16;" vertex="1" parent="1">
          <mxGeometry x="360" y="500" width="120" height="60" as="geometry" />
        </mxCell>
        <mxCell id="RlqcwJac3fZC3uI610fX-22" value="结果分析" style="rounded=1;whiteSpace=wrap;html=1;fontSize=16;" vertex="1" parent="1">
          <mxGeometry x="588" y="500" width="120" height="60" as="geometry" />
        </mxCell>
        <mxCell id="RlqcwJac3fZC3uI610fX-23" value="统计结果" style="shape=cylinder3;whiteSpace=wrap;html=1;boundedLbl=1;backgroundOutline=1;size=15;fontSize=16;" vertex="1" parent="1">
          <mxGeometry x="511" y="598" width="60" height="80" as="geometry" />
        </mxCell>
        <mxCell id="RlqcwJac3fZC3uI610fX-24" value="运营报表" style="rounded=1;whiteSpace=wrap;html=1;fillColor=#fad7ac;strokeColor=#b46504;fontSize=16;" vertex="1" parent="1">
          <mxGeometry x="588" y="270" width="120" height="60" as="geometry" />
        </mxCell>
        <mxCell id="RlqcwJac3fZC3uI610fX-25" value="" style="endArrow=classic;html=1;exitX=0.5;exitY=1;exitDx=0;exitDy=0;fontSize=12;" edge="1" parent="1">
          <mxGeometry width="50" height="50" relative="1" as="geometry">
            <mxPoint x="189" y="421" as="sourcePoint" />
            <mxPoint x="189" y="500" as="targetPoint" />
          </mxGeometry>
        </mxCell>
        <mxCell id="RlqcwJac3fZC3uI610fX-26" value="" style="endArrow=classic;html=1;exitX=0.5;exitY=1;exitDx=0;exitDy=0;entryX=0;entryY=0.75;entryDx=0;entryDy=0;edgeStyle=orthogonalEdgeStyle;fontSize=12;" edge="1" parent="1" source="RlqcwJac3fZC3uI610fX-19" target="RlqcwJac3fZC3uI610fX-20">
          <mxGeometry width="50" height="50" relative="1" as="geometry">
            <mxPoint x="150" y="560" as="sourcePoint" />
            <mxPoint x="150" y="639" as="targetPoint" />
            <Array as="points">
              <mxPoint x="190" y="660" />
            </Array>
          </mxGeometry>
        </mxCell>
        <mxCell id="RlqcwJac3fZC3uI610fX-28" value="" style="endArrow=classic;html=1;entryX=0.4;entryY=1.05;entryDx=0;entryDy=0;entryPerimeter=0;fontSize=12;" edge="1" parent="1">
          <mxGeometry width="50" height="50" relative="1" as="geometry">
            <mxPoint x="408" y="631" as="sourcePoint" />
            <mxPoint x="408" y="562" as="targetPoint" />
          </mxGeometry>
        </mxCell>
        <mxCell id="RlqcwJac3fZC3uI610fX-29" value="" style="endArrow=classic;html=1;entryX=0.283;entryY=0;entryDx=0;entryDy=0;entryPerimeter=0;exitX=1;exitY=0.5;exitDx=0;exitDy=0;edgeStyle=orthogonalEdgeStyle;fontSize=12;" edge="1" parent="1" source="RlqcwJac3fZC3uI610fX-21" target="RlqcwJac3fZC3uI610fX-23">
          <mxGeometry width="50" height="50" relative="1" as="geometry">
            <mxPoint x="480" y="580" as="sourcePoint" />
            <mxPoint x="530" y="530" as="targetPoint" />
          </mxGeometry>
        </mxCell>
        <mxCell id="RlqcwJac3fZC3uI610fX-31" value="" style="endArrow=classic;html=1;entryX=0;entryY=0.5;entryDx=0;entryDy=0;edgeStyle=orthogonalEdgeStyle;fontSize=12;" edge="1" parent="1" target="RlqcwJac3fZC3uI610fX-22">
          <mxGeometry width="50" height="50" relative="1" as="geometry">
            <mxPoint x="550" y="596" as="sourcePoint" />
            <mxPoint x="590" y="530" as="targetPoint" />
            <Array as="points">
              <mxPoint x="550" y="530" />
            </Array>
          </mxGeometry>
        </mxCell>
        <mxCell id="RlqcwJac3fZC3uI610fX-32" value="" style="endArrow=classic;html=1;exitX=0.5;exitY=0;exitDx=0;exitDy=0;entryX=0.5;entryY=1;entryDx=0;entryDy=0;fontSize=12;" edge="1" parent="1" source="RlqcwJac3fZC3uI610fX-22" target="RlqcwJac3fZC3uI610fX-24">
          <mxGeometry width="50" height="50" relative="1" as="geometry">
            <mxPoint x="610" y="380" as="sourcePoint" />
            <mxPoint x="660" y="330" as="targetPoint" />
          </mxGeometry>
        </mxCell>
        <mxCell id="RlqcwJac3fZC3uI610fX-34" value="第三方业务" style="rounded=1;whiteSpace=wrap;html=1;fontSize=16;" vertex="1" parent="1">
          <mxGeometry x="-150" y="125" width="90" height="40" as="geometry" />
        </mxCell>
        <mxCell id="RlqcwJac3fZC3uI610fX-35" value="流水" style="shape=tape;whiteSpace=wrap;html=1;fontSize=16;" vertex="1" parent="1">
          <mxGeometry x="-30" y="120" width="80" height="50" as="geometry" />
        </mxCell>
        <mxCell id="RlqcwJac3fZC3uI610fX-37" value="" style="endArrow=classic;html=1;exitX=1;exitY=0.5;exitDx=0;exitDy=0;fontSize=12;" edge="1" parent="1" source="RlqcwJac3fZC3uI610fX-34">
          <mxGeometry width="50" height="50" relative="1" as="geometry">
            <mxPoint x="-70" y="190" as="sourcePoint" />
            <mxPoint x="-30" y="145" as="targetPoint" />
          </mxGeometry>
        </mxCell>
        <mxCell id="RlqcwJac3fZC3uI610fX-38" value="" style="endArrow=classic;html=1;exitX=0.486;exitY=0.92;exitDx=0;exitDy=0;exitPerimeter=0;entryX=-0.008;entryY=0.617;entryDx=0;entryDy=0;entryPerimeter=0;edgeStyle=orthogonalEdgeStyle;fontSize=12;" edge="1" parent="1">
          <mxGeometry width="50" height="50" relative="1" as="geometry">
            <mxPoint x="8.88000000000011" y="165" as="sourcePoint" />
            <mxPoint x="129.03999999999996" y="396.02" as="targetPoint" />
            <Array as="points">
              <mxPoint x="4" y="165" />
              <mxPoint x="4" y="396" />
            </Array>
          </mxGeometry>
        </mxCell>
      </root>
    </mxGraphModel>
  </diagram>
</mxfile>
